<svg width="559" height="493" viewBox="0 0 559 493" fill="none" xmlns="http://www.w3.org/2000/svg">
<path d="M0 479.572C29.601 405.369 87.032 331.735 130.902 264.994C180.658 341.048 231.066 416.94 280.823 493C301.641 403.584 334.472 319.835 379.489 239.844C446.332 284.445 492.162 332.471 559 377.079C534.924 317.771 512.407 258.436 491.845 198.348L491.845 67.4814C491.845 58.0903 477.27 58.0792 477.27 67.4814L477.27 154.577C467.836 125.372 458.847 95.9611 450.47 66.221C447.457 66.8065 444.422 67.3085 441.403 67.8885V14.0795C441.403 4.68848 426.829 4.67734 426.829 14.0795V70.5651C402.669 75.0264 378.464 79.209 354.193 82.9844C354.75 61.1184 355.302 39.258 355.858 17.3976C356.098 8.00656 341.523 8.00656 341.283 17.3976C340.71 40.0108 340.136 62.6185 339.563 85.2317C306.893 90.128 274.14 94.4666 241.308 98.1528L241.308 7.04745C241.308 -2.34357 226.733 -2.35474 226.733 7.04745L226.733 99.7699C198.007 102.837 169.241 105.492 140.431 107.633L140.431 67.4868C140.431 58.0958 125.856 58.0846 125.856 67.4868L125.856 108.748C110.913 109.774 95.9597 110.695 81.0005 111.47C78.4163 83.2576 75.8321 55.0454 73.248 26.8277C72.3958 17.5538 57.8153 17.4646 58.673 26.8277C61.2794 55.2797 63.8858 83.7316 66.4923 112.184C50.5027 112.925 34.5132 113.55 18.5125 114.001C16.5354 236.788 19.9939 358.397 0 479.572Z" fill="#802EEC"/>
</svg>
